
<svg xmlns="http://www.w3.org/2000/svg" version="1.1" xmlns:xlink="http://www.w3.org/1999/xlink" preserveAspectRatio="none" x="0px" y="0px" width="300px" height="220px" viewBox="0 0 300 220">
<defs>
<g id="Symbole_1444_0_Layer0_0_FILL">
<path fill="#CCCCCC" stroke="none" d="
M 247.2 31.95
Q 247.15 28.9 246 26.65 244.8 24.45 242.8 23.25 240.85 22 238.3 22 236.1 22.05 234.45 22.9 232.8 23.75 231.9 25.15
L 231.9 15.8 227 15.8 227 41.7 231.9 41.7 231.9 38.95
Q 232.8 40.25 234.45 41.1 236.05 41.95 238.3 42 240.85 42 242.8 40.75 244.8 39.5 246 37.25 247.15 35 247.2 31.95
M 241.45 35.05
Q 240.7 36.35 239.55 37.05 238.35 37.7 237 37.7 235.7 37.7 234.55 37.05 233.4 36.4 232.65 35.1 231.95 33.85 231.9 32 231.95 30.15 232.65 28.9 233.4 27.6 234.55 26.95 235.7 26.3 237 26.3 238.35 26.3 239.55 26.95 240.7 27.6 241.45 28.85 242.15 30.1 242.15 31.95 242.15 33.75 241.45 35.05
M 209.9 22
Q 207.4 22 205.4 23.25 203.4 24.45 202.25 26.65 201.1 28.9 201.05 31.95 201.1 35 202.25 37.25 203.4 39.5 205.4 40.75 207.4 42 209.9 42 212.2 41.95 213.8 41.05 215.45 40.15 216.3 38.85
L 216.3 41.7 221.25 41.7 221.25 22.3 216.3 22.3 216.3 25.05
Q 215.45 23.8 213.85 22.95 212.25 22.05 209.9 22
M 215.6 28.9
Q 216.3 30.15 216.3 32 216.3 33.85 215.6 35.1 214.85 36.4 213.7 37.05 212.55 37.7 211.15 37.7 209.85 37.7 208.7 37.05 207.5 36.35 206.8 35.05 206.1 33.75 206.05 31.95 206.1 30.1 206.8 28.85 207.5 27.6 208.7 26.95 209.85 26.3 211.15 26.3 212.55 26.3 213.7 26.95 214.85 27.6 215.6 28.9
M 196.45 15.8
L 191.55 15.8 191.55 41.7 196.45 41.7 196.45 15.8
M 181.45 37.05
Q 180.6 37.85 180.6 39.05 180.6 40.3 181.45 41.1 182.3 41.9 183.65 41.95 184.95 41.9 185.75 41.1 186.6 40.3 186.6 39.05 186.6 37.85 185.75 37.05 184.95 36.25 183.65 36.2 182.3 36.25 181.45 37.05
M 172.65 22.3
L 167.6 35.85 162.55 22.3 157.05 22.3 164.85 41.2 160.65 50.9 165.85 50.9 177.85 22.3 172.65 22.3
M 153.55 22.3
L 148.6 22.3 148.6 25.05
Q 147.75 23.75 146.15 22.9 144.5 22.05 142.2 22 139.7 22 137.7 23.25 135.7 24.45 134.55 26.65 133.4 28.9 133.35 31.95 133.4 35 134.55 37.25 135.7 39.5 137.7 40.75 139.7 42 142.2 42 144.5 41.95 146.15 41.05 147.75 40.15 148.6 38.85
L 148.6 41.85
Q 148.6 43.65 147.95 44.8 147.35 45.9 146.25 46.45 145.2 47 143.8 47 141.95 46.95 140.7 46.2 139.45 45.4 139.05 44.1
L 134.2 44.1
Q 134.45 46.3 135.75 47.9 137 49.55 139.1 50.4 141.2 51.25 143.95 51.25 147.15 51.2 149.25 50 151.4 48.75 152.5 46.6 153.55 44.5 153.55 41.85
L 153.55 22.3
M 139.1 28.85
Q 139.8 27.6 141 26.95 142.15 26.3 143.45 26.3 144.85 26.3 146 26.95 147.15 27.6 147.9 28.9 148.6 30.15 148.6 32 148.6 33.85 147.9 35.1 147.15 36.4 146 37.05 144.85 37.7 143.45 37.7 142.15 37.7 141 37.05 139.8 36.35 139.1 35.05 138.4 33.75 138.35 31.95 138.4 30.1 139.1 28.85
M 130.3 22.05
Q 128.3 22.05 126.8 22.95 125.3 23.8 124.35 25.35
L 124.35 22.3 119.45 22.3 119.45 41.7 124.35 41.7 124.35 32.05
Q 124.35 30.2 124.95 29.1 125.5 28.05 126.5 27.6 127.55 27.15 129 27.15
L 130.3 27.15 130.3 22.05
M 110.3 23.2
Q 108.15 22 105.35 22 102.45 22 100.25 23.25 98.05 24.45 96.85 26.7 95.65 28.95 95.6 32 95.65 35.05 96.9 37.3 98.1 39.55 100.3 40.8 102.5 42 105.35 42 107.75 42 109.55 41.15 111.4 40.3 112.65 38.85 113.85 37.4 114.4 35.6
L 109.1 35.6
Q 108.65 36.6 107.75 37.25 106.8 37.9 105.25 37.95 103.35 37.95 102.05 36.8 100.8 35.65 100.55 33.5
L 114.75 33.5
Q 114.8 33 114.85 32.5 114.9 32.05 114.9 31.6 114.85 28.7 113.65 26.5 112.45 24.4 110.3 23.2
M 109.15 28
Q 109.75 28.9 109.8 30.2
L 100.6 30.2
Q 100.95 28.2 102.15 27.1 103.4 26.05 105.2 26 106.45 26.05 107.5 26.5 108.55 27.05 109.15 28
M 86.3 31
L 86.3 41.7 91.2 41.7 91.2 30.3
Q 91.2 27.65 90.2 25.8 89.2 23.95 87.5 23 85.75 22.05 83.45 22.05 81.6 22.05 80.1 22.75 78.55 23.5 77.6 24.75
L 77.6 22.3 72.7 22.3 72.7 41.7 77.6 41.7 77.6 31
Q 77.65 28.65 78.8 27.45 79.95 26.2 82 26.2 83.95 26.2 85.1 27.45 86.25 28.65 86.3 31
M 67.3 21.25
L 67.3 17.25 53.1 17.25 53.1 41.7 67.3 41.7 67.3 37.7 58 37.7 58 31.25 66.25 31.25 66.25 27.35 58 27.35 58 21.25 67.3 21.25 Z"/>
</g>

<g id="Symbole_2_0_Layer6_0_FILL">
<path fill="#32F337" stroke="none" d="
M -42.3 -17.6
L -42.35 -17.65
Q -43.9119140625 -19.196875 -45 -20.95
L -45 30
Q -45 36.2 -40.6 40.6 -36.2 45 -30 45 -23.8 45 -19.4 40.6 -15 36.2 -15 30
L -15 9.65 -42.2 -17.5
Q -42.2341796875 -17.53359375 -42.3 -17.6 Z"/>
</g>

<g id="Symbole_2_0_Layer5_0_FILL">
<path fill="#32F337" stroke="none" d="
M -40.6 -40.6
Q -44.8625 -36.3375 -45 -30.4
L -45 -29.65
Q -44.8625 -23.6625 -40.6 -19.4
L 12.95 34.15
Q 12.5 32.1802734375 12.5 30
L 12.5 -8.7 -19.4 -40.6
Q -23.8 -45 -30 -45 -36.2 -45 -40.6 -40.6
M -37.5 -30
Q -37.5 -33.05 -35.3 -35.3 -33.1 -37.5 -30 -37.5 -26.9 -37.5 -24.7 -35.3 -22.5 -33.05 -22.5 -30 -22.5 -26.9 -24.7 -24.7 -26.9 -22.5 -30 -22.5 -33.1 -22.5 -35.3 -24.7 -37.5 -26.9 -37.5 -30
M -33.55 -33.55
Q -35 -32.05 -35 -30 -35 -27.95 -33.55 -26.45 -32.05 -25 -30 -25 -27.95 -25 -26.45 -26.45 -25 -27.95 -25 -30 -25 -32.05 -26.45 -33.55 -27.95 -35 -30 -35 -32.05 -35 -33.55 -33.55 Z"/>
</g>

<g id="Symbole_2_0_Layer4_0_FILL">
<path fill="#32F337" stroke="none" d="
M 19.4 -40.6
Q 15 -36.2 15 -30
L 15 30
Q 15 36.25 19.4 40.6
L 19.45 40.65
Q 23.8 45 30 45 36.25 45 40.6 40.6 45 36.25 45 30 45 29.81171875 45 29.6
L 45 -30
Q 45 -36.2 40.65 -40.55 36.2 -45 30 -45 23.8 -45 19.4 -40.6
M 30 22.5
Q 33.1 22.5 35.3 24.7 37.5 26.95 37.5 30 37.5 33.1 35.3 35.3 33.1 37.5 30 37.5 26.9 37.5 24.7 35.3 22.5 33.1 22.5 30 22.5 26.95 24.7 24.7 26.9 22.5 30 22.5
M 35 30
Q 35 27.95 33.55 26.45 32.05 25 30 25 27.95 25 26.45 26.45 25 27.95 25 30 25 32.05 26.45 33.55 27.95 35 30 35 32.05 35 33.55 33.55 35 32.05 35 30 Z"/>
</g>

<g id="Symbole_2_0_Layer1_0_FILL">
<path fill="#32F337" stroke="none" d="
M 62.5 -50
L 58.9 -46.45
Q 75 -26.5111328125 75 0 75 31.05 52.95 52.95 31 75 0 75 -26.4978515625 75 -46.45 58.95
L -50 62.5
Q -28.5580078125 80 0 80 33.05 80 56.5 56.5 80 33.1 80 0 80 -28.571484375 62.5 -50
M 46.4 -58.95
L 50 -62.5
Q 28.5875 -80 0 -80 -33.1 -80 -56.65 -56.6 -80 -33.1 -80 0 -80 28.640234375 -62.55 50
L -58.95 46.45
Q -75 26.57890625 -75 0 -75 -31.05 -53.1 -53.05 -31.05 -75 0 -75 26.5271484375 -75 46.4 -58.95 Z"/>
</g>
</defs>

<g transform="matrix( 1, 0, 0, 1, 0,164.1) ">
<g transform="matrix( 1, 0, 0, 1, 0,0) ">
<use xlink:href="#Symbole_1444_0_Layer0_0_FILL"/>
</g>
</g>

<g transform="matrix( 1, 0, 0, 1, 150,90) ">
<g transform="matrix( 1, 0, 0, 1, 0,0) ">
<use xlink:href="#Symbole_2_0_Layer6_0_FILL"/>
</g>

<g transform="matrix( 1, 0, 0, 1, 0,0) ">
<use xlink:href="#Symbole_2_0_Layer5_0_FILL"/>
</g>

<g transform="matrix( 1, 0, 0, 1, 0,0) ">
<use xlink:href="#Symbole_2_0_Layer4_0_FILL"/>
</g>

<g transform="matrix( 1, 0, 0, 1, 0,0) ">
<use xlink:href="#Symbole_2_0_Layer1_0_FILL"/>
</g>
</g>
</svg>
